<svg width="40" height="40" viewBox="0 0 40 40" fill="none" xmlns="http://www.w3.org/2000/svg">
<path d="M20 40C31.0457 40 40 31.0457 40 20C40 8.9543 31.0457 0 20 0C8.9543 0 0 8.9543 0 20C0 31.0457 8.9543 40 20 40Z" fill="#FF4500"/>
<path d="M10.5766 17.5434L19.9999 30.6667L9.67235 22.5212C9.52957 22.4092 9.43042 22.2605 9.3749 22.0751C9.31937 21.8898 9.31937 21.7067 9.3749 21.5257L10.5766 17.5434ZM16.0735 17.5434H23.9263L19.9999 30.6667L16.0735 17.5434ZM13.7177 9.6307L16.0735 17.5434H10.5766L12.9324 9.6307C12.9959 9.43245 13.1268 9.33333 13.3251 9.33333C13.5234 9.33333 13.6543 9.43245 13.7177 9.6307ZM29.4232 17.5434L30.6249 21.5257C30.6805 21.7067 30.6805 21.8898 30.6249 22.0751C30.5694 22.2605 30.4703 22.4092 30.3275 22.5212L19.9999 30.6667L29.4232 17.5434ZM29.4232 17.5434H23.9263L26.2821 9.6307C26.3456 9.43245 26.4765 9.33333 26.6748 9.33333C26.8731 9.33333 27.0039 9.43245 27.0674 9.6307L29.4232 17.5434Z" fill="white"/>
</svg>
