<svg width="40" height="40" viewBox="0 0 40 40" fill="none" xmlns="http://www.w3.org/2000/svg">
<path d="M20 40C31.0457 40 40 31.0457 40 20C40 8.9543 31.0457 0 20 0C8.9543 0 0 8.9543 0 20C0 31.0457 8.9543 40 20 40Z" fill="#FF4500"/>
<path d="M33.3047 20.1905C33.3047 18.5692 31.9936 17.2816 30.3958 17.2816C29.641 17.2806 28.915 17.571 28.3692 18.0924C26.3664 16.6616 23.6242 15.7319 20.5723 15.6127L21.9073 9.36566L26.2469 10.2953C26.2948 11.3922 27.2006 12.2746 28.3216 12.2746C29.4659 12.2746 30.3958 11.3449 30.3958 10.1999C30.3958 9.0555 29.4661 8.12566 28.3216 8.12566C27.5109 8.12566 26.7953 8.60253 26.4616 9.29409L21.6216 8.26878C21.4784 8.24472 21.3353 8.26878 21.2398 8.34034C21.1206 8.41191 21.0492 8.53097 21.0256 8.67409L19.5469 15.6363C16.4473 15.7319 13.6575 16.6616 11.6309 18.1163C11.0851 17.595 10.359 17.3045 9.60422 17.3057C7.98281 17.3057 6.69531 18.6167 6.69531 20.2146C6.69531 21.4066 7.41047 22.4078 8.41219 22.8613C8.36354 23.1528 8.3396 23.4479 8.34063 23.7435C8.34063 28.2257 13.5625 31.8741 20.0002 31.8741C26.438 31.8741 31.6598 28.2497 31.6598 23.7435C31.6597 23.448 31.6357 23.153 31.5883 22.8613C32.5895 22.4078 33.3047 21.3825 33.3047 20.1905V20.1905ZM13.3238 22.2647C13.3238 21.1203 14.2534 20.1905 15.3984 20.1905C16.5428 20.1905 17.4727 21.1202 17.4727 22.2647C17.4727 23.4092 16.543 24.3394 15.3984 24.3394C14.2536 24.3628 13.3238 23.4092 13.3238 22.2647ZM24.9358 27.7727C23.5052 29.2035 20.7869 29.2989 20.0002 29.2989C19.1895 29.2989 16.4714 29.1794 15.0642 27.7727C14.85 27.5582 14.85 27.2243 15.0642 27.0097C15.2789 26.7955 15.6127 26.7955 15.8273 27.0097C16.7336 27.916 18.6411 28.2257 20.0002 28.2257C21.3594 28.2257 23.2905 27.9158 24.1727 27.0097C24.3873 26.7955 24.7211 26.7955 24.9358 27.0097C25.1264 27.2243 25.1264 27.5582 24.9358 27.7727ZM24.5541 24.363C23.4095 24.363 22.4798 23.4333 22.4798 22.2888C22.4798 21.1442 23.4095 20.2146 24.5541 20.2146C25.6989 20.2146 26.6286 21.1442 26.6286 22.2888C26.6286 23.4091 25.6989 24.363 24.5541 24.363Z" fill="white"/>
</svg>
